<?xml version="1.0" encoding="utf-8"?>
<!-- Generator: Adobe Illustrator 27.0.0, SVG Export Plug-In . SVG Version: 6.00 Build 0)  -->
<svg version="1.1" id="Layer_1" xmlns="http://www.w3.org/2000/svg" xmlns:xlink="http://www.w3.org/1999/xlink" x="0px" y="0px"
	 viewBox="0 0 24 24" style="enable-background:new 0 0 24 24;" xml:space="preserve">
<style type="text/css">
	.st0{fill:#333333;}
</style>
<path class="st0" d="M17,21c-1.7,0-3.3-0.4-4.7-1.2l-0.4-0.2c-3.1-1.7-5.7-4.2-7.3-7.3l-0.2-0.4C3.4,10.3,3,8.7,3,7V6.3
	c0-0.5,0.2-1,0.6-1.4l1.7-1.7C5.4,3.1,5.7,3,5.9,3c0.2,0,0.4,0.2,0.6,0.4l2.2,3.9c0.2,0.4,0.2,0.9-0.2,1.2l-1.9,1.9
	c-0.2,0.2-0.2,0.4-0.1,0.6l0.3,0.7c1.3,2.3,3.2,4.2,5.5,5.5l0.7,0.4c0.2,0.1,0.4,0.1,0.6-0.1l1.9-1.9c0.3-0.3,0.8-0.4,1.2-0.2
	l3.9,2.3c0.2,0.1,0.3,0.3,0.4,0.6c0,0.2-0.1,0.5-0.2,0.6l-1.7,1.7c-0.4,0.4-0.9,0.6-1.4,0.6H17z"/>
</svg>
